<?xml version="1.0" standalone="no"?>
<!DOCTYPE svg PUBLIC "-//W3C//DTD SVG 20010904//EN"
 "http://www.w3.org/TR/2001/REC-SVG-20010904/DTD/svg10.dtd">
<svg version="1.0" xmlns="http://www.w3.org/2000/svg"
 width="16.000000pt" height="16.000000pt" viewBox="0 0 16.000000 16.000000"
 preserveAspectRatio="xMidYMid meet">

<g transform="translate(0.000000,16.000000) scale(0.100000,-0.100000)"
fill="#000000" stroke="none">
<path d="M66 108 l-69 -41 27 -14 c16 -8 26 -22 26 -35 0 -21 1 -21 16 -6 12
12 23 14 40 8 15 -6 24 -5 27 4 11 27 19 126 11 125 -5 0 -40 -19 -78 -41z
m68 -20 c-8 -50 -19 -67 -35 -51 -8 8 -8 17 0 31 17 32 13 35 -18 13 -32 -23
-64 -30 -43 -9 13 13 84 56 95 57 4 1 4 -18 1 -41z"/>
</g>
</svg>
